<svg xmlns="http://www.w3.org/2000/svg" fill="none" viewBox="0 0 141 67" height="67" width="141">
<path fill="#ffffff" d="M17.7075 60.9233H19.3982V64.4818H19.9017V60.9233H21.5961V60.4597H17.7075V60.9233Z"></path>
<path fill="#ffffff" d="M27.7807 62.3269C27.9556 62.1196 28.0426 61.8698 28.0426 61.5783C28.0426 61.2286 27.9306 60.9547 27.7076 60.7567C27.4837 60.5587 27.1755 60.4597 26.7822 60.4597H24.4761V64.4818H24.9749V62.7219H26.5342L27.5401 64.4818H28.0935L27.0876 62.7145C27.3745 62.6637 27.6049 62.5341 27.7798 62.3269H27.7807ZM24.9749 62.2528V60.9233H26.7748C27.0108 60.9233 27.1931 60.9825 27.3236 61.1C27.4531 61.2175 27.5188 61.3822 27.5188 61.5941C27.5188 61.8059 27.454 61.9743 27.3236 62.0863C27.194 62.1983 27.0024 62.2538 26.7498 62.2538H24.9749V62.2528Z"></path>
<path fill="#ffffff" d="M32.7407 60.4597L30.7695 64.4818H31.3053L31.8375 63.4001H34.0603L34.6072 64.4818H35.1504L33.1571 60.4597H32.7416H32.7407ZM32.066 62.9301L32.9479 61.149L33.8373 62.9301H32.066Z"></path>
<path fill="#ffffff" d="M40.1714 60.4597H38.4482V64.4818H40.1714C40.8173 64.4818 41.3309 64.2995 41.7131 63.9349C42.0953 63.5704 42.285 63.0865 42.285 62.4814C42.285 61.8763 42.0916 61.3942 41.7038 61.0204C41.3161 60.6466 40.8053 60.4597 40.1714 60.4597ZM41.3411 63.6028C41.057 63.8813 40.6674 64.0201 40.1714 64.0201H38.947V60.9233H40.1714C40.6572 60.9233 41.0449 61.0658 41.3337 61.3498C41.6224 61.6339 41.7677 62.0095 41.7677 62.4758C41.7677 62.9422 41.6252 63.3252 41.3411 63.6037V63.6028Z"></path>
<path fill="#ffffff" d="M46.3631 60.4384H45.8569V64.4827H46.3631V60.4384Z"></path>
<path fill="#ffffff" d="M52.8609 63.885C52.6157 64.0404 52.3353 64.1181 52.0188 64.1181C51.5672 64.1181 51.1924 63.9636 50.8963 63.6555C50.6001 63.3474 50.4521 62.956 50.4521 62.4823C50.4521 62.0086 50.6001 61.6172 50.8963 61.3072C51.1924 60.9973 51.5663 60.8428 52.0188 60.8428C52.3131 60.8428 52.5787 60.9112 52.8165 61.0472C53.0543 61.1833 53.2366 61.3711 53.3634 61.6116L53.7826 61.3128C53.5911 61.0121 53.3421 60.7799 53.0358 60.617C52.7295 60.4542 52.3908 60.3727 52.0188 60.3727C51.4191 60.3727 50.9222 60.5717 50.5289 60.9686C50.1356 61.3655 49.9385 61.8707 49.9385 62.4823C49.9385 63.0939 50.1347 63.5954 50.527 63.9923C50.8648 64.3346 51.2812 64.528 51.7754 64.5752V65.1526C51.7976 65.1498 51.8198 65.1479 51.843 65.147C51.8661 65.1461 51.9003 65.1452 51.9466 65.1452C52.1261 65.1452 52.2585 65.1757 52.3418 65.2358C52.4251 65.296 52.4676 65.394 52.4676 65.5273C52.4676 65.6337 52.4269 65.7151 52.3455 65.7715C52.264 65.8271 52.1456 65.8557 51.9901 65.8557C51.8957 65.8557 51.7856 65.8465 51.6625 65.8289C51.5394 65.8113 51.3608 65.7771 51.1304 65.729V66.0056C51.3321 66.0611 51.5024 66.1222 51.6422 66.1222C51.7819 66.1444 51.917 66.1546 52.0484 66.1546C52.3159 66.1546 52.5194 66.0991 52.6601 65.989C52.8008 65.8789 52.8711 65.7197 52.8711 65.5134C52.8711 65.3071 52.8026 65.1544 52.6666 65.0471C52.5306 64.9398 52.3334 64.887 52.0762 64.887H52.0031V64.5872C52.0077 64.5872 52.0123 64.5872 52.0179 64.5872C52.426 64.5872 52.7906 64.4929 53.1108 64.305C53.4319 64.1172 53.6836 63.848 53.8687 63.4982L53.468 63.1994C53.3079 63.5001 53.1052 63.7286 52.8591 63.8841L52.8609 63.885Z"></path>
<path fill="#ffffff" d="M58.4219 59.5585C58.4802 59.5132 58.545 59.491 58.6153 59.491C58.6496 59.491 58.6801 59.4928 58.7079 59.4965C58.7356 59.5002 58.7689 59.5076 58.8078 59.5206L59.1613 59.6335C59.2076 59.6455 59.2502 59.6548 59.2909 59.6603C59.3307 59.6668 59.3668 59.6696 59.3982 59.6696C59.5657 59.6696 59.7082 59.614 59.8248 59.5039C59.9414 59.3938 60.0312 59.2273 60.0941 59.0071H59.7952C59.7517 59.0996 59.7018 59.1671 59.6462 59.2097C59.5907 59.2523 59.5232 59.2736 59.4454 59.2736C59.4214 59.2736 59.3908 59.2699 59.3547 59.2624C59.3186 59.255 59.2807 59.2439 59.2418 59.2301L58.892 59.1172C58.8652 59.1079 58.8365 59.1005 58.805 59.095C58.7736 59.0904 58.7384 59.0876 58.6995 59.0876C58.5219 59.0876 58.3729 59.1449 58.2516 59.2587C58.1304 59.3726 58.0425 59.5372 57.9897 59.751H58.2812C58.3173 59.6686 58.3655 59.6048 58.4238 59.5595L58.4219 59.5585Z"></path>
<path fill="#ffffff" d="M58.8193 60.4597L56.8481 64.4818H57.384L57.9161 63.4001H60.1389L60.6858 64.4818H61.229L59.2357 60.4597H58.8202H58.8193ZM58.1456 62.9301L59.0275 61.149L59.9168 62.9301H58.1456Z"></path>
<path fill="#ffffff" d="M66.2864 60.3727C65.6867 60.3727 65.1898 60.5717 64.7965 60.9686C64.4032 61.3655 64.2061 61.8707 64.2061 62.4823C64.2061 63.0939 64.4022 63.5954 64.7946 63.9923C65.187 64.3892 65.6839 64.5882 66.2864 64.5882C66.8888 64.5882 67.3913 64.3892 67.7855 63.9923C68.1807 63.5954 68.3778 63.092 68.3778 62.4823C68.3778 61.8726 68.1798 61.3683 67.7837 60.9705C67.3876 60.5726 66.8888 60.3727 66.2864 60.3727ZM67.4089 63.6555C67.1128 63.9636 66.7389 64.1181 66.2864 64.1181C65.8339 64.1181 65.46 63.9636 65.1639 63.6555C64.8677 63.3474 64.7197 62.956 64.7197 62.4823C64.7197 62.0086 64.8677 61.6172 65.1639 61.3072C65.46 60.9973 65.8339 60.8428 66.2864 60.8428C66.7389 60.8428 67.1155 60.9973 67.4108 61.3054C67.706 61.6135 67.8531 62.0058 67.8531 62.4823C67.8531 62.9588 67.705 63.3465 67.4089 63.6555Z"></path>
<path fill="#ffffff" d="M80.2477 62.4971C80.0098 62.2806 79.6869 62.1501 79.2788 62.1039C79.14 62.0872 78.9447 62.0715 78.6921 62.0567C78.1433 62.0225 77.7861 61.9438 77.6204 61.8198C77.5547 61.7689 77.5066 61.7143 77.4751 61.6561C77.4437 61.5978 77.4279 61.533 77.4279 61.4627C77.4279 61.285 77.526 61.1379 77.7232 61.0204C77.9203 60.9029 78.1701 60.8437 78.4737 60.8437C78.7772 60.8437 79.0437 60.8937 79.3176 60.9945C79.5906 61.0954 79.8516 61.2452 80.0996 61.4442L80.3911 61.0287C80.0968 60.8122 79.7868 60.6494 79.4601 60.5384C79.1335 60.4283 78.8022 60.3727 78.4672 60.3727C78.0054 60.3727 77.6306 60.4773 77.341 60.6864C77.0522 60.8955 76.9069 61.1611 76.9069 61.484C76.9069 61.6616 76.9551 61.8208 77.0532 61.9632C77.1503 62.1057 77.2919 62.2214 77.4798 62.3111C77.7204 62.4203 78.171 62.498 78.8318 62.5443C78.9651 62.5517 79.0678 62.5591 79.1381 62.5665C79.4324 62.5906 79.6619 62.6664 79.8285 62.7941C79.995 62.9218 80.0783 63.0837 80.0783 63.2808C80.0783 63.5288 79.9626 63.7314 79.7304 63.8896C79.4981 64.0478 79.1964 64.1265 78.8253 64.1265C78.5246 64.1265 78.2201 64.0682 77.9129 63.9516C77.6056 63.835 77.3095 63.6666 77.0254 63.4455L76.7339 63.8794C77.0448 64.12 77.3724 64.2986 77.7157 64.4151C78.0591 64.5317 78.432 64.59 78.8327 64.59C79.3621 64.59 79.7905 64.4688 80.1172 64.2255C80.4439 63.983 80.6077 63.6731 80.6077 63.2965C80.6077 62.981 80.4883 62.7145 80.2504 62.499L80.2477 62.4971Z"></path>
<path fill="#ffffff" d="M84.7566 62.5656H86.3668V62.103H84.7566V60.9233H87.4199V60.4597H84.2568V64.4818H87.5837V64.0191H84.7566V62.5656Z"></path>
<path fill="#ffffff" d="M93.6192 63.885C93.374 64.0404 93.0936 64.1181 92.7771 64.1181C92.3255 64.1181 91.9516 63.9636 91.6546 63.6555C91.3584 63.3474 91.2104 62.956 91.2104 62.4823C91.2104 62.0086 91.3584 61.6172 91.6546 61.3072C91.9507 60.9973 92.3255 60.8428 92.7771 60.8428C93.0714 60.8428 93.337 60.9112 93.5748 61.0472C93.8126 61.1833 93.9949 61.3711 94.1217 61.6116L94.5409 61.3128C94.3494 61.0121 94.1004 60.7799 93.7941 60.617C93.4878 60.4542 93.1491 60.3727 92.7771 60.3727C92.1774 60.3727 91.6805 60.5717 91.2872 60.9686C90.8939 61.3655 90.6968 61.8707 90.6968 62.4823C90.6968 63.0939 90.893 63.5954 91.2853 63.9923C91.6777 64.3892 92.1747 64.5882 92.7771 64.5882C93.1852 64.5882 93.5498 64.4938 93.87 64.306C94.1902 64.1181 94.4438 63.8489 94.6279 63.4991L94.2272 63.2003C94.0671 63.501 93.8645 63.7295 93.6183 63.885H93.6192Z"></path>
<path fill="#ffffff" d="M100.918 63.0652C100.918 63.4825 100.84 63.7628 100.685 63.9053C100.529 64.0478 100.222 64.1181 99.7629 64.1181C99.3039 64.1181 98.9957 64.0469 98.8393 63.9053C98.6829 63.7628 98.6043 63.4834 98.6043 63.0652V60.4606H98.1055V63.2003C98.1055 63.6953 98.2341 64.0506 98.4914 64.2662C98.7486 64.4808 99.1725 64.5882 99.7629 64.5882C100.353 64.5882 100.777 64.4808 101.034 64.2662C101.292 64.0515 101.42 63.6962 101.42 63.2003V60.4606H100.918V63.0652Z"></path>
<path fill="#ffffff" d="M105.718 60.4597H105.219V64.4818H108.345V64.0191H105.718V60.4597Z"></path>
<path fill="#ffffff" d="M113.003 60.4597L111.032 64.4818H111.568L112.1 63.4001H114.322L114.869 64.4818H115.413L113.419 60.4597H113.004H113.003ZM112.329 62.9301L113.211 61.149L114.1 62.9301H112.329Z"></path>
<path fill="#ffffff" d="M121.301 62.7155C121.588 62.6646 121.819 62.535 121.994 62.3278C122.169 62.1205 122.255 61.8707 122.255 61.5793C122.255 61.2295 122.144 60.9556 121.92 60.7576C121.697 60.5596 121.388 60.4606 120.995 60.4606H118.689V64.4827H119.188V62.7229H120.747L121.753 64.4827H122.306L121.3 62.7155H121.301ZM119.188 62.2528V60.9233H120.988C121.224 60.9233 121.406 60.9825 121.536 61.1C121.666 61.2175 121.732 61.3822 121.732 61.5941C121.732 61.8059 121.667 61.9743 121.536 62.0863C121.406 62.1982 121.215 62.2538 120.963 62.2538H119.189L119.188 62.2528Z"></path>
<path fill="#ffffff" d="M88.1928 33.4934C87.3007 33.1964 86.3466 33.0364 85.3546 33.0364C80.3888 33.0364 76.3633 37.0612 76.3633 42.0261C76.3633 46.9909 80.3888 51.0157 85.3546 51.0157C87.2896 51.0157 89.0821 50.4051 90.548 49.3651V47.633C89.6503 48.5185 88.2557 49.1542 86.9231 48.9885C84.7475 48.7174 81.664 46.7189 80.6868 43.3714C79.5189 39.3678 81.3864 35.4309 84.1478 34.7509C86.9102 34.0708 88.9646 35.6835 90.5471 38.3445V33.511C90.0945 33.9505 89.2478 33.7534 88.1919 33.4925L88.1928 33.4934Z" clip-rule="evenodd" fill-rule="evenodd"></path>
<path fill="#ffffff" d="M137.051 48.995H130.06V43.2382H132.986C134.372 43.2382 135.657 44.0663 135.95 44.7953V39.6602C135.657 40.3893 134.371 41.2174 132.986 41.2174H130.06V33.5055C130.06 32.5636 129.741 31.8586 129.227 31.4339H137.051C138.436 31.4339 139.723 32.262 140.015 32.9911L139.291 29.4131H124.459C124.973 29.8369 125.292 30.5419 125.292 31.4838V48.9451C125.292 49.887 124.974 50.592 124.459 51.0158H139.291L140.015 47.4378C139.723 48.1669 138.437 48.995 137.051 48.995Z" clip-rule="evenodd" fill-rule="evenodd"></path>
<path fill="#ffffff" d="M134.948 28.1067C135.241 28.1067 135.46 28.1946 135.592 28.3371V26.5606C135.46 26.7022 135.241 26.7901 134.948 26.7901H129.526C129.234 26.7901 129.015 26.7022 128.883 26.5606V28.3371C129.015 28.1955 129.234 28.1067 129.526 28.1067H134.948Z" clip-rule="evenodd" fill-rule="evenodd"></path>
<path fill="#ffffff" d="M110.421 33.0355C110.849 33.389 111.114 33.9756 111.114 34.7593V49.2921C111.114 50.0758 110.85 50.6633 110.421 51.0158H115.775C115.347 50.6633 115.082 50.0758 115.082 49.2921V44.5428H117.517C118.67 44.5428 119.741 45.2312 119.985 45.8381V41.5644C119.741 42.1714 118.671 42.8607 117.517 42.8607H115.082V36.4423C115.082 35.6577 114.816 35.0711 114.389 34.7185H120.901C122.054 34.7185 123.124 35.4069 123.368 36.0148L122.764 33.0364H110.42L110.421 33.0355Z" clip-rule="evenodd" fill-rule="evenodd"></path>
<path fill="#ffffff" d="M32.6012 36.0139L31.9979 33.0355H19.6538C20.0813 33.389 20.3469 33.9756 20.3469 34.7593V49.2921C20.3469 50.0758 20.0813 50.6633 19.6538 51.0158H31.9979L32.6012 48.0374C32.3579 48.6444 31.2881 49.3337 30.1341 49.3337H24.3151V44.5428H26.7508C27.9038 44.5428 28.9746 45.2312 29.2179 45.8381V41.5644C28.9746 42.1714 27.9038 42.8607 26.7508 42.8607H24.3151V36.4423C24.3151 35.6577 24.0504 35.0711 23.622 34.7185H30.1341C31.2872 34.7185 32.3579 35.4069 32.6012 36.0148V36.0139Z" clip-rule="evenodd" fill-rule="evenodd"></path>
<path fill="#ffffff" d="M40.3057 33.0364H34.9521C35.3797 33.3889 35.6453 33.9764 35.6453 34.7601V49.2929C35.6453 50.0766 35.3797 50.6642 34.9521 51.0167H40.3057C39.8781 50.6642 39.6125 50.0766 39.6125 49.2929V34.7601C39.6125 33.9764 39.8781 33.3889 40.3057 33.0364Z" clip-rule="evenodd" fill-rule="evenodd"></path>
<path fill="#ffffff" d="M52.4607 38.7526H47.1646C47.4561 38.9931 47.6374 39.3938 47.6374 39.9286V49.8407C47.6374 50.3755 47.457 50.7761 47.1646 51.0167H52.4607C55.7644 51.0167 57.4135 47.9486 57.4079 44.8851C57.4135 41.8216 55.7644 38.7535 52.4607 38.7535V38.7526ZM50.7459 49.8999H50.348V41.0453C50.348 40.5105 50.1675 40.1099 49.8751 39.8693H50.8181C53.3278 39.9184 54.5799 42.4036 54.5752 44.8851C54.5808 47.3897 53.3037 49.9008 50.745 49.9008L50.7459 49.8999Z" clip-rule="evenodd" fill-rule="evenodd"></path>
<path fill="#ffffff" d="M108.003 49.5187L102.201 34.0255C101.868 33.3038 101.439 33.0364 100.521 33.0364H99.2542L93.0521 49.5973C92.8253 50.1895 92.5755 50.7409 92.0859 51.0167H94.9927C94.2625 50.356 94.467 49.4253 94.9492 48.5916C96.242 46.359 99.2551 44.8573 101.74 44.4169L103.597 49.3771C103.846 50.0415 103.78 50.7382 103.249 51.0157H108.998C108.485 50.728 108.236 50.1395 108.002 49.5187H108.003ZM96.3475 44.8277L99.12 37.423L101.14 42.8171C99.3939 43.1687 97.7717 43.8627 96.3475 44.8277Z" clip-rule="evenodd" fill-rule="evenodd"></path>
<path fill="#ffffff" d="M66.6522 38.934C63.3735 38.0559 60.0031 40.0008 59.1249 43.2789C58.2467 46.5571 60.1919 49.9268 63.4706 50.8049C66.7494 51.6829 70.1188 49.738 70.9979 46.4599C71.8762 43.1818 69.9309 39.812 66.6522 38.934ZM65.0624 49.8648C63.1662 49.8648 61.6291 47.6285 61.6291 44.8694C61.6291 42.1112 63.1662 39.874 65.0624 39.8749C66.9585 39.8749 68.4956 42.1113 68.4956 44.8703C68.4956 47.6285 66.9585 49.8657 65.0624 49.8648Z" clip-rule="evenodd" fill-rule="evenodd"></path>
<path fill="#ffffff" d="M16.154 49.3105L13.7507 42.8949C12.9289 43.1493 12.1257 43.3344 11.3807 43.4436C14.1347 41.8901 16.4001 39.527 16.4001 36.4922C16.4001 32.5978 13.2149 29.4131 9.31982 29.4131H0C0.513603 29.8369 0.831945 30.5419 0.831945 31.4848V48.9451C0.831945 49.887 0.513603 50.592 0 51.0167H6.43253C5.9726 50.6373 5.66907 50.0322 5.61077 49.2337L5.60059 45.455C6.8573 45.27 8.28613 44.8721 9.6835 44.2781L11.5427 49.2051C11.7749 49.9536 11.6676 50.7058 11.0716 51.0167H17.3154C16.7268 50.6864 16.427 50.023 16.154 49.3115V49.3105ZM5.60059 43.2557V33.5046C5.60059 32.5627 5.28225 31.8576 4.76772 31.4339H6.57505C9.35406 31.4339 11.6333 33.7137 11.6333 36.4922C11.6333 39.5797 8.71367 42.4415 5.59966 43.2557H5.60059Z" clip-rule="evenodd" fill-rule="evenodd"></path>
<path fill="#ffffff" d="M34.8325 18.0593C35.3887 18.0593 35.8366 18.223 36.1762 18.5515C36.5158 18.879 36.6861 19.3065 36.6861 19.833C36.6861 20.3594 36.5186 20.7887 36.1845 21.1079C35.8504 21.4272 35.3998 21.5872 34.8325 21.5872H33.3213V18.0602H34.8325V18.0593ZM34.8325 18.4645H33.759V21.1801H34.8325C35.2674 21.1801 35.6089 21.058 35.8578 20.8146C36.1068 20.5704 36.2317 20.241 36.2317 19.8256C36.2317 19.4101 36.1049 19.0872 35.8514 18.8383C35.5978 18.5894 35.2582 18.4645 34.8316 18.4645H34.8325Z"></path>
<path fill="#ffffff" d="M37.5742 21.5863V18.0593H40.3477V18.4654H38.0119V19.5008H39.4241V19.9061H38.0119V21.181H40.492V21.5872H37.5742V21.5863Z"></path>
<path fill="#ffffff" d="M40.9287 21.0562L41.1841 20.6759C41.4331 20.8702 41.6931 21.0182 41.9624 21.12C42.2317 21.2227 42.4991 21.2736 42.7629 21.2736C43.0886 21.2736 43.3533 21.2042 43.5569 21.0654C43.7605 20.9266 43.8623 20.749 43.8623 20.5315C43.8623 20.3594 43.7892 20.217 43.6429 20.105C43.4967 19.9931 43.295 19.9264 43.0377 19.9052C42.9757 19.8987 42.8869 19.8922 42.7694 19.8857C42.19 19.845 41.7949 19.7775 41.5839 19.6812C41.4201 19.6026 41.2952 19.5008 41.21 19.3759C41.1249 19.251 41.0823 19.1113 41.0823 18.9558C41.0823 18.6727 41.2091 18.4396 41.4627 18.2564C41.7162 18.0732 42.0457 17.9816 42.4501 17.9816C42.7444 17.9816 43.034 18.0297 43.3209 18.1268C43.6078 18.224 43.8798 18.3674 44.1371 18.5561L43.8817 18.9207C43.6642 18.7458 43.4356 18.6144 43.196 18.5265C42.9563 18.4377 42.7101 18.3942 42.4566 18.3942C42.19 18.3942 41.9707 18.446 41.7986 18.5487C41.6265 18.6524 41.5395 18.7819 41.5395 18.9373C41.5395 18.9993 41.5534 19.0558 41.5811 19.1067C41.6089 19.1576 41.6515 19.2057 41.7088 19.2501C41.8541 19.3583 42.1669 19.4277 42.6481 19.4583C42.8693 19.4712 43.0414 19.4851 43.1627 19.4999C43.5208 19.5406 43.804 19.6553 44.0131 19.845C44.2222 20.0347 44.3259 20.2678 44.3259 20.5445C44.3259 20.8748 44.1825 21.1459 43.8965 21.3596C43.6096 21.5724 43.2348 21.6788 42.7703 21.6788C42.4186 21.6788 42.092 21.628 41.7912 21.5253C41.4895 21.4235 41.2026 21.2662 40.9296 21.0552L40.9287 21.0562Z"></path>
<path fill="#ffffff" d="M46.8017 18.0593C47.3579 18.0593 47.8058 18.223 48.1454 18.5515C48.485 18.879 48.6553 19.3065 48.6553 19.833C48.6553 20.3594 48.4878 20.7887 48.1537 21.1079C47.8197 21.4272 47.369 21.5872 46.8017 21.5872H45.2905V18.0602H46.8017V18.0593ZM46.8017 18.4645H45.7282V21.1801H46.8017C47.2367 21.1801 47.5781 21.058 47.8271 20.8146C48.076 20.5704 48.2009 20.241 48.2009 19.8256C48.2009 19.4101 48.0742 19.0872 47.8206 18.8383C47.567 18.5894 47.2274 18.4645 46.8008 18.4645H46.8017Z"></path>
<path fill="#ffffff" d="M49.5439 21.5863V18.0593H52.3174V18.4654H49.9817V19.5008H51.3938V19.9061H49.9817V21.181H52.4618V21.5872H49.5439V21.5863Z"></path>
<path fill="#ffffff" d="M90.1631 21.4373V18.0472H90.6101V21.4373H90.1631Z"></path>
<path fill="#ffffff" d="M93.4631 20.6315C93.6528 20.7851 93.8546 20.9007 94.0683 20.9794C94.2821 21.058 94.4996 21.0978 94.7189 21.0978C95.1168 21.0978 95.4472 21.0034 95.7082 20.8147C95.9691 20.6259 96.1264 20.3687 96.1792 20.043C95.9192 20.179 95.6684 20.2789 95.4268 20.3419C95.1853 20.4048 94.9308 20.4362 94.6643 20.4362C94.1785 20.4362 93.7778 20.3206 93.4631 20.0893C93.1485 19.858 92.9902 19.5656 92.9902 19.2121C92.9902 18.8587 93.1392 18.5515 93.4363 18.3239C93.7333 18.0963 94.1239 17.9816 94.6079 17.9816C95.2084 17.9816 95.7035 18.1518 96.0922 18.4932C96.4809 18.8337 96.6752 19.2593 96.6752 19.7682C96.6752 20.2771 96.4957 20.6972 96.1366 21.0219C95.7776 21.3467 95.3112 21.5095 94.7383 21.5095C94.4441 21.5095 94.1729 21.4623 93.923 21.3689C93.6741 21.2754 93.4335 21.1293 93.2012 20.9312L93.4631 20.6305V20.6315ZM96.1801 19.5517C96.1394 19.2297 95.9673 18.9568 95.6637 18.7319C95.3602 18.5071 95.0058 18.3951 94.6014 18.3951C94.2775 18.3951 94.0045 18.4756 93.7833 18.6366C93.5621 18.7976 93.4511 18.9901 93.4511 19.2131C93.4511 19.4361 93.5668 19.6368 93.7981 19.795C94.0295 19.9523 94.3145 20.0319 94.6532 20.0319C94.9049 20.0319 95.1529 19.993 95.3991 19.9172C95.6452 19.8404 95.9053 19.7192 96.1801 19.5526V19.5517Z"></path>
<path fill="#ffffff" d="M99.1284 21.4373V18.0472H99.5754V21.4373H99.1284Z"></path>
<path fill="#ffffff" d="M102.423 21.4179C102.421 21.3411 102.418 21.256 102.415 21.1626C102.412 21.0691 102.41 21.0145 102.41 20.9997C102.41 20.6398 102.483 20.365 102.63 20.1753C102.778 19.9856 103.033 19.8256 103.398 19.696C103.523 19.6535 103.695 19.5961 103.912 19.523C104.568 19.3037 104.897 19.102 104.897 18.9188C104.897 18.768 104.819 18.6422 104.664 18.5432C104.508 18.4442 104.309 18.3942 104.066 18.3942C103.855 18.3942 103.639 18.4368 103.419 18.5201C103.199 18.6042 102.96 18.7366 102.704 18.9179L102.443 18.5765C102.704 18.3739 102.965 18.2249 103.225 18.1277C103.485 18.0306 103.752 17.9825 104.024 17.9825C104.416 17.9825 104.736 18.0713 104.983 18.249C105.23 18.4266 105.353 18.6524 105.353 18.9244C105.353 19.2862 104.945 19.6035 104.129 19.8765C104.058 19.9024 104.006 19.9199 103.972 19.931C103.472 20.0994 103.16 20.2419 103.038 20.3594C102.915 20.4769 102.853 20.637 102.853 20.8415C102.853 20.8609 102.853 20.8813 102.855 20.9035C102.856 20.9257 102.86 20.9618 102.866 21.0108H105.42V21.417H102.422L102.423 21.4179Z"></path>
<path fill="#ffffff" d="M76.1815 24.2319H60.9637C60.535 24.2319 60.1875 24.5794 60.1875 25.008V26.6393C60.1875 27.0679 60.535 27.4153 60.9637 27.4153H76.1815C76.6102 27.4153 76.9577 27.0679 76.9577 26.6393V25.008C76.9577 24.5794 76.6102 24.2319 76.1815 24.2319Z"></path>
<path fill="#ffffff" d="M57.376 4.05324C58.2123 4.05324 58.8902 3.37543 58.8902 2.53931C58.8902 1.7032 58.2123 1.02539 57.376 1.02539C56.5397 1.02539 55.8618 1.7032 55.8618 2.53931C55.8618 3.37543 56.5397 4.05324 57.376 4.05324Z"></path>
<path fill="#ffffff" d="M79.7774 4.05324C80.6136 4.05324 81.2916 3.37543 81.2916 2.53931C81.2916 1.7032 80.6136 1.02539 79.7774 1.02539C78.9411 1.02539 78.2632 1.7032 78.2632 2.53931C78.2632 3.37543 78.9411 4.05324 79.7774 4.05324Z"></path>
<path fill="#ffffff" d="M68.5772 3.36885C69.4134 3.36885 70.0914 2.69104 70.0914 1.85493C70.0914 1.01881 69.4134 0.341003 68.5772 0.341003C67.7409 0.341003 67.063 1.01881 67.063 1.85493C67.063 2.69104 67.7409 3.36885 68.5772 3.36885Z"></path>
<path fill="#ffffff" d="M73.0455 10.0749L69.0688 4.95494C68.8199 4.63473 68.3332 4.63473 68.0847 4.95494L64.108 10.0749L58.7498 5.08601C58.1753 4.55095 57.2456 5.05199 57.3846 5.82223L60.3669 22.3783C60.442 22.7952 60.8071 23.0988 61.2335 23.0988H75.9204C76.3469 23.0988 76.7119 22.7952 76.787 22.3783L79.7693 5.82223C79.9079 5.05199 78.9786 4.55095 78.4041 5.08601L73.0459 10.0749H73.0455Z"></path>
<path fill="#ffffff" d="M76.5263 10.2126C76.7329 10.1371 76.9387 10.0927 77.1449 10.0571C77.3506 10.0218 77.5568 9.99983 77.7626 9.98615C77.9683 9.97246 78.1745 9.9708 78.3803 9.97412L78.6935 9.98573C78.7715 9.98781 78.8391 9.99112 78.9071 9.99527C78.9747 9.99942 79.0403 10.0044 79.1054 10.0098C79.3655 10.0305 79.6178 10.0695 79.8704 10.1139C79.9965 10.1363 80.1222 10.1645 80.2479 10.1939C80.3736 10.2234 80.4993 10.2549 80.6246 10.2922C80.7499 10.3287 80.8756 10.3686 81.0009 10.4109C81.1266 10.4544 81.2506 10.5025 81.3759 10.554C81.6252 10.6568 81.8745 10.7734 82.1205 10.9111C82.6096 11.1877 83.0946 11.5465 83.5078 12.0144C83.7131 12.2487 83.8969 12.5096 84.05 12.7867C84.2006 13.0658 84.3213 13.3595 84.4014 13.6565C84.486 13.9518 84.5291 14.2492 84.5503 14.5354C84.5569 14.6076 84.5578 14.6781 84.5598 14.749C84.5627 14.8199 84.5607 14.8896 84.5598 14.9589L84.5586 15.0626L84.5532 15.1646C84.5495 15.2326 84.5457 15.3006 84.5383 15.3666C84.5267 15.5006 84.5072 15.63 84.4901 15.7598C84.469 15.8871 84.4474 16.0145 84.4196 16.1372C84.3943 16.26 84.3636 16.3882 84.33 16.513C84.2952 16.6383 84.2574 16.7631 84.2143 16.8867C84.128 17.1335 84.0243 17.3757 83.9031 17.6089C83.7828 17.842 83.6472 18.0672 83.4966 18.28C83.346 18.4927 83.1813 18.6931 83.0062 18.8801C82.8324 19.068 82.6482 19.2435 82.4566 19.4052C82.0724 19.7279 81.6646 20.0033 81.2452 20.2377C81.0349 20.3542 80.8233 20.4629 80.6092 20.5629C80.3956 20.6632 80.1795 20.7532 79.9625 20.8383C79.5298 21.0096 79.0913 21.1489 78.6532 21.2759C78.4338 21.3385 78.2139 21.3949 77.9932 21.4467C77.7725 21.499 77.5514 21.5434 77.3307 21.5911C77.1096 21.6371 76.8881 21.6782 76.6661 21.7155C76.5549 21.7342 76.4438 21.7516 76.3326 21.7682L75.9982 21.8192C75.7746 21.852 75.5506 21.8789 75.3237 21.9042C75.2104 21.9179 75.0963 21.9304 74.9806 21.9412L74.8051 21.9569L74.7143 21.9648L74.6666 21.9685L74.6408 21.9702L74.6089 21.9714L74.6782 19.4206L74.6869 19.4214L74.701 19.4222L74.7329 19.4239L74.8005 19.4268L74.9408 19.431C75.0354 19.433 75.1316 19.4343 75.2283 19.4343C75.4216 19.433 75.6161 19.4256 75.8107 19.4156C76.1998 19.3953 76.589 19.36 76.9739 19.3098C77.3589 19.2592 77.7389 19.1866 78.111 19.1008C78.4836 19.0149 78.8466 18.9067 79.1959 18.7793C79.5443 18.6512 79.8808 18.5064 80.1915 18.333C80.5022 18.1605 80.7893 17.966 81.0419 17.749C81.1685 17.6408 81.2863 17.5267 81.395 17.4077C81.502 17.2874 81.5999 17.1621 81.687 17.0323C81.8617 16.7723 81.9957 16.4923 82.0894 16.1936C82.1131 16.119 82.133 16.0431 82.1521 15.9663C82.1699 15.8884 82.1865 15.8129 82.1998 15.7299C82.2159 15.6478 82.2255 15.5682 82.2367 15.4881C82.2433 15.4097 82.2537 15.3313 82.2578 15.2558C82.2616 15.2173 82.2624 15.1804 82.2632 15.1434L82.2653 15.0879L82.2645 15.0339C82.2645 14.9979 82.2661 14.9614 82.2637 14.9269C82.262 14.8921 82.2624 14.8564 82.2583 14.8232C82.2479 14.6868 82.2251 14.5594 82.1902 14.4404C82.157 14.3205 82.1114 14.2081 82.0517 14.1003C81.9911 13.9929 81.9148 13.8908 81.8227 13.7929C81.6364 13.5997 81.3784 13.4313 81.0747 13.3135C80.9992 13.2836 80.9191 13.26 80.8395 13.2351C80.7984 13.2243 80.759 13.211 80.7171 13.2019C80.6756 13.1928 80.6337 13.1836 80.5914 13.1758C80.5072 13.1596 80.4213 13.1438 80.3346 13.133C80.2471 13.1231 80.1596 13.1148 80.0704 13.111C79.7157 13.0932 79.3448 13.1264 78.9963 13.2027C78.9532 13.2123 78.9104 13.2222 78.8694 13.2338C78.8287 13.245 78.7876 13.257 78.7549 13.2695C78.747 13.2724 78.7391 13.2757 78.7379 13.2786C78.7304 13.2794 78.7142 13.2799 78.713 13.2803L78.708 13.2815L78.698 13.284L78.6781 13.2894L78.5989 13.3101C78.5462 13.3259 78.4931 13.3429 78.4404 13.362C78.2293 13.4404 78.0181 13.5495 77.8065 13.7C77.595 13.8502 77.383 14.0381 77.1702 14.2786C76.9569 14.5267 76.7429 14.8004 76.5267 15.2098V10.2118L76.5263 10.2126Z"></path>
</svg>