<?xml version="1.0" encoding="UTF-8"?>
<svg xmlns="http://www.w3.org/2000/svg" viewBox="0 0 32 32" width="32" height="32">
  <path fill="#ffffff" d="M16 3C9.383 3 4 8.304 4 14.83c0 2.33.705 4.59 2.04 6.54L4.65 28.5a1 1 0 0 0 1.13 1.13l7.18-1.37c.985.29 2.01.44 3.04.44 6.617 0 12-5.303 12-11.87C28 8.304 22.617 3 16 3zm0 22.1c-.93 0-1.852-.14-2.74-.418a1 1 0 0 0-.59-.03l-4.63.883.887-4.543a1 1 0 0 0-.04-.61A10.06 10.06 0 0 1 6.6 14.83C6.6 9.74 10.83 5.6 16 5.6c5.17 0 9.4 4.14 9.4 9.23 0 5.09-4.23 9.27-9.4 9.27z"/>
  <path fill="#ffffff" d="M12.7 10.3c-.3-.7-.62-.7-.9-.7h-.78c-.26 0-.68.1-1.03.5-.35.4-1.35 1.32-1.35 3.22 0 1.9 1.39 3.74 1.59 4 .2.27 2.69 4.3 6.66 5.86 3.3 1.3 3.98 1.04 4.7.98.72-.07 2.34-.95 2.67-1.86.33-.92.33-1.7.23-1.86-.1-.16-.36-.25-.76-.45-.4-.2-2.34-1.15-2.7-1.28-.36-.13-.62-.2-.88.2-.26.4-1.01 1.28-1.24 1.54-.23.26-.46.3-.86.1-.4-.2-1.68-.62-3.2-1.98-1.18-1.06-1.98-2.36-2.21-2.76-.23-.4-.02-.62.17-.82.18-.18.4-.46.6-.69.2-.23.26-.4.4-.66.13-.26.07-.5-.03-.7-.1-.2-.9-2.17-1.24-2.97z"/>
</svg>
