<?xml version="1.0" encoding="UTF-8"?>
<svg xmlns="http://www.w3.org/2000/svg" viewBox="0 0 24 24" width="24" height="24" aria-hidden="true">
  <path fill="#ffffff" d="M12 2.02c-5.51 0-9.98 4.47-9.98 9.98 0 1.74.45 3.44 1.3 4.95L2.1 21.9a.9.9 0 0 0 1.03 1.03l4.95-1.22A9.93 9.93 0 0 0 12 21.98c5.51 0 9.98-4.47 9.98-9.98S17.51 2.02 12 2.02Zm0 18.16c-1.27 0-2.52-.3-3.65-.88a.9.9 0 0 0-.6-.07l-3.04.75.75-3.04a.9.9 0 0 0-.07-.6A8.16 8.16 0 0 1 3.82 12c0-4.51 3.67-8.18 8.18-8.18s8.18 3.67 8.18 8.18-3.67 8.18-8.18 8.18Zm4.71-5.73c-.26-.13-1.52-.75-1.75-.83-.23-.08-.4-.13-.57.13-.17.26-.66.83-.81 1-.15.17-.3.2-.56.07-.26-.13-1.1-.4-2.1-1.3-.78-.7-1.3-1.56-1.45-1.82-.15-.26-.02-.4.12-.54.12-.12.26-.3.4-.45.13-.15.17-.26.26-.43.08-.17.04-.32-.02-.45-.06-.13-.57-1.37-.78-1.88-.2-.48-.4-.41-.57-.41h-.49c-.17 0-.45.06-.69.32-.23.26-.9.88-.9 2.16 0 1.28.92 2.52 1.05 2.69.13.17 1.82 2.78 4.42 3.9.62.27 1.1.43 1.47.55.62.2 1.19.17 1.64.1.5-.07 1.52-.62 1.73-1.22.21-.6.21-1.12.15-1.22-.06-.1-.23-.17-.49-.3Z"/>
</svg>
